<svg width="9" height="14" viewBox="0 0 9 14" fill="none" xmlns="http://www.w3.org/2000/svg">
<path d="M1.97974 12.7365C1.9139 12.6225 1.91178 12.5047 1.9734 12.3831C2.03501 12.2616 2.13752 12.1846 2.28093 12.1521C2.75848 12.0487 3.21569 11.9013 3.65257 11.7099C4.08944 11.5185 4.50816 11.2868 4.90875 11.015C4.10655 11.0828 3.35493 10.9264 2.65388 10.5458C1.95283 10.1652 1.40015 9.62505 0.995856 8.92549C0.627153 8.28688 0.443639 7.62244 0.445313 6.93218C0.446987 6.24192 0.593514 5.56939 0.884898 4.9146C1.17628 4.25981 1.58969 3.64607 2.12513 3.07338C2.66057 2.50069 3.2783 2.01226 3.97834 1.60809C4.37368 1.37985 4.77534 1.17592 5.18335 0.996316C5.59135 0.816709 6.01621 0.670151 6.45791 0.556641C6.62431 0.511256 6.78604 0.519247 6.94311 0.580613C7.10018 0.641979 7.22261 0.748687 7.31039 0.900738C7.37623 1.01478 7.37843 1.13271 7.317 1.25455C7.25556 1.37638 7.15296 1.45325 7.0092 1.48517C6.53604 1.59616 6.07997 1.74554 5.64099 1.9333C5.20201 2.12105 4.78214 2.35069 4.38139 2.62221C5.18358 2.5544 5.93529 2.71096 6.63652 3.0919C7.33774 3.47285 7.89033 4.01279 8.29428 4.71174C8.66298 5.35036 8.84634 6.01488 8.84436 6.70532C8.84238 7.39576 8.69601 8.0682 8.40523 8.72264C8.11446 9.37708 7.7009 9.9909 7.16455 10.5641C6.6282 11.1373 6.01061 11.6257 5.31179 12.0291C4.91646 12.2574 4.51472 12.4616 4.10659 12.6416C3.69846 12.8217 3.27367 12.968 2.83222 13.0806C2.66583 13.126 2.50409 13.118 2.34702 13.0566C2.18995 12.9953 2.06752 12.8885 1.97974 12.7365ZM2.82046 7.87205C3.11016 8.37382 3.53681 8.70021 4.10043 8.85123C4.66404 9.00225 5.19673 8.93292 5.6985 8.64322C6.20027 8.35353 6.52666 7.92687 6.67768 7.36326C6.8287 6.79964 6.75937 6.26695 6.46967 5.76518C6.17998 5.26341 5.75332 4.93702 5.1897 4.786C4.62609 4.63498 4.0934 4.70432 3.59163 4.99401C3.08986 5.28371 2.76347 5.71036 2.61245 6.27398C2.46143 6.8376 2.53077 7.37029 2.82046 7.87205Z" fill="#C9261D"/>
</svg>
